<svg width="45" height="45" viewBox="0 0 45 45" fill="none" xmlns="http://www.w3.org/2000/svg">
<g clip-path="url(#clip0_46_46)">
<path d="M45 10.3125V30.9375C45 31.455 44.58 31.875 44.0625 31.875C43.545 31.875 43.125 31.455 43.125 30.9375V10.3125C43.125 9.48754 42.765 8.70567 42.135 8.16942C41.4957 7.62379 40.6819 7.40067 39.8325 7.53942C38.5032 7.75504 37.5 9.03379 37.5 10.5132V19.6875C37.5 20.205 37.08 20.625 36.5625 20.625C36.045 20.625 35.625 20.205 35.625 19.6875V6.56254C35.625 5.01192 34.3632 3.75004 32.8125 3.75004C31.2619 3.75004 30 5.01192 30 6.56254V19.6875C30 20.205 29.58 20.625 29.0625 20.625C28.545 20.625 28.125 20.205 28.125 19.6875V4.68754C28.125 3.13692 26.8632 1.87504 25.3125 1.87504C23.7619 1.87504 22.5 3.13692 22.5 4.68754V19.6875C22.5 20.205 22.08 20.625 21.5625 20.625C21.045 20.625 20.625 20.205 20.625 19.6875V8.63817C20.625 7.15879 19.6219 5.88004 18.2907 5.66442C17.4488 5.52942 16.6313 5.75067 15.99 6.29442C15.36 6.83067 14.9982 7.61254 14.9982 8.43754V30.9375C14.9982 31.3107 14.7769 31.6482 14.4338 31.7963C14.0925 31.9444 13.695 31.8769 13.4194 31.6219L8.47504 27.0057C7.34442 25.95 5.56504 26.0082 4.50754 27.1388C3.44817 28.2713 3.50629 30.0582 4.63879 31.1194L13.005 39.1857C15.6394 41.7244 19.1063 43.125 22.7663 43.125H30.9357C31.4532 43.125 31.8732 43.545 31.8732 44.0625C31.8732 44.58 31.4532 45 30.9357 45H22.7663C18.6188 45 14.6907 43.4138 11.7038 40.5357L3.34692 32.4788C1.47192 30.72 1.37442 27.7482 3.13879 25.86C3.99192 24.9469 5.15067 24.42 6.40129 24.3769C7.61442 24.3375 8.84067 24.7819 9.75567 25.635L13.1232 28.7775V8.43754C13.1232 7.06129 13.725 5.75817 14.775 4.86567C15.8269 3.97317 17.22 3.59442 18.5907 3.81192C19.35 3.93567 20.0363 4.26942 20.6232 4.73442V4.68567C20.6232 2.10192 22.7269 -0.00183105 25.3107 -0.00183105C27.33 -0.00183105 29.04 1.28817 29.6982 3.08254C30.5288 2.34004 31.6125 1.87317 32.8107 1.87317C35.3963 1.87317 37.4982 3.97692 37.4982 6.56067V6.60754C38.085 6.14254 38.7713 5.80879 39.5307 5.68504C40.9013 5.46379 42.2982 5.84442 43.3463 6.73879C44.3963 7.63129 44.9982 8.93254 44.9982 10.3107L45 10.3125ZM31.875 28.0407C31.875 27.6113 31.5825 27.2344 31.1644 27.1313L27.96 26.3307L27.1594 23.1263C26.9513 22.2919 25.5488 22.2919 25.3388 23.1263L24.5419 26.3175L21.3507 27.0563C20.9307 27.1538 20.6307 27.5232 20.6232 27.9544C20.6157 28.3857 20.9007 28.7644 21.3169 28.875L24.5344 29.7413L25.3388 32.9569C25.4438 33.375 25.8188 33.6675 26.2482 33.6675C26.6775 33.6675 27.0544 33.375 27.1575 32.9569L27.9582 29.7525L31.1625 28.9519C31.5807 28.8469 31.8732 28.4719 31.8732 28.0425L31.875 28.0407ZM45 37.5C45 37.8844 44.7675 38.2275 44.4113 38.37L40.0969 40.095L38.37 44.4094C38.2294 44.7657 37.8825 44.9982 37.5 44.9982C37.1175 44.9982 36.7707 44.7638 36.63 44.4094L34.8994 40.0857L30.5719 38.2632C30.2194 38.1132 29.9907 37.7644 29.9982 37.3819C30.0057 36.9994 30.2457 36.6582 30.6038 36.5232L34.905 34.8957L36.6282 30.5907C36.9094 29.8782 38.085 29.8782 38.3682 30.5907L40.095 34.905L44.4094 36.63C44.7657 36.7725 45 37.1175 45 37.5ZM41.5369 37.5L39.0263 36.495C38.7882 36.3994 38.5988 36.2119 38.505 35.9719L37.5 33.4613L36.495 35.9719C36.3975 36.2157 36.2025 36.4069 35.9569 36.5007L33.4632 37.4438L35.9907 38.5088C36.2213 38.6063 36.405 38.7919 36.4969 39.0244L37.5019 41.535L38.5069 39.0244C38.6025 38.7863 38.79 38.5969 39.0282 38.5013L41.5388 37.4963L41.5369 37.5ZM3.79879 16.2338C3.92629 16.6163 4.28442 16.875 4.68754 16.875C5.09067 16.875 5.44879 16.6163 5.57629 16.2338L6.36567 13.8657L8.73379 13.0763C9.11629 12.9488 9.37504 12.5907 9.37504 12.1875C9.37504 11.7844 9.11629 11.4263 8.73379 11.2988L6.36567 10.5094L5.57629 8.14129C5.32129 7.37629 4.05379 7.37629 3.79879 8.14129L3.01317 10.4982L0.658166 11.235C0.273791 11.355 0.00754137 11.7075 4.13691e-05 12.1125C-0.00745863 12.5175 0.243791 12.8794 0.624416 13.0125L3.00567 13.8544L3.79879 16.2338Z" fill="black"/>
</g>
<defs>
<clipPath id="clip0_46_46">
<rect width="45" height="45" fill="white"/>
</clipPath>
</defs>
</svg>
