<svg width="89" height="87" viewBox="0 0 89 87" fill="none" xmlns="http://www.w3.org/2000/svg">
<g clip-path="url(#clip0_50_71)">
<path d="M76.0208 54.375C68.8638 54.375 63.0417 60.0662 63.0417 67.0625C63.0417 74.0588 68.8638 79.75 76.0208 79.75C83.1779 79.75 89 74.0588 89 67.0625C89 60.0662 83.1779 54.375 76.0208 54.375ZM76.0208 76.125C70.907 76.125 66.75 72.0578 66.75 67.0625C66.75 62.0672 70.907 58 76.0208 58C81.1346 58 85.2917 62.0672 85.2917 67.0625C85.2917 72.0578 81.1346 76.125 76.0208 76.125ZM76.0208 43.5C74.9195 43.5 73.8292 43.6015 72.7501 43.7465L66.6573 28.4345C67.5399 28.8006 68.5115 29 69.5312 29H74.1667V14.5H69.5312C66.5423 14.5 63.9762 16.2473 62.8043 18.7413L59.6745 10.875H40.7917V14.5H57.138L69.0825 44.5222C64.8958 45.7584 61.0688 48.082 58.0651 51.3445L49.1985 61.625H43.8585L30.8793 32.625H12.9792C5.82208 32.625 0 38.3162 0 45.3125V65.25H7.57613C7.48713 65.8517 7.41667 66.4535 7.41667 67.0625C7.41667 74.0588 13.2388 79.75 20.3958 79.75C27.5529 79.75 33.375 74.0588 33.375 67.0625C33.375 66.4535 33.3045 65.8517 33.2155 65.25H50.9265L60.8649 53.7261C64.7253 49.532 70.2507 47.125 76.0245 47.125H89.0037V43.5H76.0208ZM69.5312 18.125H70.4583V25.375H69.5312C67.4843 25.375 65.8229 23.7474 65.8229 21.75C65.8229 19.7526 67.4843 18.125 69.5312 18.125ZM29.6667 67.0625C29.6667 72.0578 25.5096 76.125 20.3958 76.125C15.282 76.125 11.125 72.0578 11.125 67.0625C11.125 66.4535 11.2103 65.8481 11.3364 65.25H29.4553C29.5814 65.8481 29.6667 66.4535 29.6667 67.0625ZM3.70833 61.625V45.3125C3.70833 40.3172 7.86538 36.25 12.9792 36.25H28.454L39.809 61.625H3.70833Z" fill="black"/>
</g>
<defs>
<clipPath id="clip0_50_71">
<rect width="89" height="87" fill="white"/>
</clipPath>
</defs>
</svg>
