<svg width="45" height="45" viewBox="0 0 45 45" fill="none" xmlns="http://www.w3.org/2000/svg">
<g clip-path="url(#clip0_46_50)">
<path d="M16.875 45H1.875C1.37772 45 0.900806 44.8025 0.549175 44.4508C0.197544 44.0992 0 43.6223 0 43.125C0 42.6277 0.197544 42.1508 0.549175 41.7992C0.900806 41.4475 1.37772 41.25 1.875 41.25H16.875C17.3723 41.25 17.8492 41.4475 18.2008 41.7992C18.5525 42.1508 18.75 42.6277 18.75 43.125C18.75 43.6223 18.5525 44.0992 18.2008 44.4508C17.8492 44.8025 17.3723 45 16.875 45Z" fill="black"/>
<path d="M13.125 37.5H1.875C1.37772 37.5 0.900806 37.3025 0.549175 36.9508C0.197544 36.5992 0 36.1223 0 35.625C0 35.1277 0.197544 34.6508 0.549175 34.2992C0.900806 33.9475 1.37772 33.75 1.875 33.75H13.125C13.6223 33.75 14.0992 33.9475 14.4508 34.2992C14.8025 34.6508 15 35.1277 15 35.625C15 36.1223 14.8025 36.5992 14.4508 36.9508C14.0992 37.3025 13.6223 37.5 13.125 37.5Z" fill="black"/>
<path d="M9.375 30H1.875C1.37772 30 0.900806 29.8025 0.549175 29.4508C0.197544 29.0992 0 28.6223 0 28.125C0 27.6277 0.197544 27.1508 0.549175 26.7992C0.900806 26.4475 1.37772 26.25 1.875 26.25H9.375C9.87228 26.25 10.3492 26.4475 10.7008 26.7992C11.0525 27.1508 11.25 27.6277 11.25 28.125C11.25 28.6223 11.0525 29.0992 10.7008 29.4508C10.3492 29.8025 9.87228 30 9.375 30Z" fill="black"/>
<path d="M24.375 44.9157C23.8777 44.9379 23.392 44.7616 23.0247 44.4256C22.6574 44.0896 22.4387 43.6215 22.4165 43.1242C22.3944 42.6269 22.5707 42.1412 22.9067 41.7739C23.2427 41.4066 23.7108 41.1879 24.2081 41.1657C27.7565 40.8411 31.1388 39.5121 33.9591 37.3343C36.7793 35.1566 38.9207 32.2204 40.1323 28.8695C41.344 25.5187 41.5757 21.892 40.8004 18.4141C40.0252 14.9363 38.275 11.7514 35.7548 9.23244C33.2347 6.71347 30.049 4.96474 26.5708 4.19107C23.0926 3.41739 19.466 3.65081 16.1157 4.86399C12.7654 6.07716 9.83018 8.21986 7.65376 11.0411C5.47735 13.8624 4.14988 17.2454 3.82684 20.7939C3.78209 21.2892 3.54241 21.7464 3.16054 22.065C2.77867 22.3835 2.28588 22.5374 1.79059 22.4926C1.2953 22.4479 0.838074 22.2082 0.519496 21.8263C0.200919 21.4444 0.0470872 20.9517 0.0918425 20.4564C0.614759 14.6876 3.34235 9.34268 7.70683 5.53431C12.0713 1.72593 17.7364 -0.252506 23.5229 0.0108336C29.3093 0.274173 34.7713 2.759 38.7718 6.94806C42.7724 11.1371 45.0032 16.7077 45 22.5001C45.0287 28.122 42.9402 33.5487 39.1498 37.7008C35.3594 41.8528 30.145 44.4259 24.5437 44.9082C24.4875 44.9139 24.4293 44.9157 24.375 44.9157Z" fill="black"/>
<path d="M22.5 11.25C22.0027 11.25 21.5258 11.4475 21.1742 11.7992C20.8225 12.1508 20.625 12.6277 20.625 13.125V22.5C20.6251 22.9972 20.8227 23.4741 21.1744 23.8256L26.7994 29.4506C27.153 29.7922 27.6266 29.9812 28.1183 29.9769C28.6099 29.9726 29.0801 29.7754 29.4278 29.4278C29.7754 29.0801 29.9726 28.6099 29.9769 28.1183C29.9812 27.6266 29.7922 27.153 29.4506 26.7994L24.375 21.7238V13.125C24.375 12.6277 24.1775 12.1508 23.8258 11.7992C23.4742 11.4475 22.9973 11.25 22.5 11.25Z" fill="black"/>
</g>
<defs>
<clipPath id="clip0_46_50">
<rect width="45" height="45" fill="white"/>
</clipPath>
</defs>
</svg>
